<svg width="24" height="24" viewBox="0 0 24 24" fill="none" xmlns="http://www.w3.org/2000/svg">
<path d="M12 16.9999L10.5 18.4999C9.8369 19.1629 8.93765 19.5353 8 19.5353C7.06236 19.5353 6.1631 19.1629 5.5 18.4999C4.83707 17.8368 4.46466 16.9376 4.46466 15.9999C4.46466 15.0623 4.83707 14.163 5.5 13.4999L8.5 10.4999C9.1631 9.83701 10.0624 9.4646 11 9.4646C11.9376 9.4646 12.8369 9.83701 13.5 10.4999" stroke="white" stroke-width="2" stroke-linecap="round"/>
<path d="M12 6.99994L13.5 5.49994C14.1631 4.83701 15.0624 4.4646 16 4.4646C16.9376 4.4646 17.8369 4.83701 18.5 5.49994C19.1629 6.16304 19.5353 7.0623 19.5353 7.99994C19.5353 8.93758 19.1629 9.83684 18.5 10.4999L15.5 13.4999C14.8369 14.1629 13.9376 14.5353 13 14.5353C12.0624 14.5353 11.1631 14.1629 10.5 13.4999" stroke="white" stroke-width="2" stroke-linecap="round"/>
</svg>
