<svg width="24" height="24" viewBox="0 0 24 24" fill="none" xmlns="http://www.w3.org/2000/svg">
<path d="M5 3.00008L5 21.0001C5.00057 21.1823 5.05084 21.361 5.14538 21.5168C5.23992 21.6726 5.37517 21.7996 5.53655 21.8843C5.69794 21.9689 5.87936 22.008 6.06128 21.9972C6.24321 21.9864 6.41874 21.9262 6.569 21.8231L19.569 12.8231C20.108 12.4501 20.108 11.5521 19.569 11.1781L6.569 2.17808C6.41906 2.07391 6.24343 2.01282 6.06121 2.00145C5.87898 1.99008 5.69712 2.02887 5.53539 2.1136C5.37367 2.19833 5.23825 2.32576 5.14386 2.48205C5.04947 2.63834 4.99971 2.8175 5 3.00008Z" fill="#808080"/>
</svg>